<?xml version="1.0" encoding="UTF-8" standalone="no"?>
<!DOCTYPE svg PUBLIC "-//W3C//DTD SVG 1.1//EN"
 "http://www.w3.org/Graphics/SVG/1.1/DTD/svg11.dtd">
<!-- Generated by graphviz version 2.43.0 (0)
 -->
<!-- Title: %3 Pages: 1 -->
<svg width="589pt" height="98pt"
 viewBox="0.00 0.00 589.10 98.00" xmlns="http://www.w3.org/2000/svg" xmlns:xlink="http://www.w3.org/1999/xlink">
<g id="graph0" class="graph" transform="scale(1 1) rotate(0) translate(4 94)">
<title>%3</title>
<polygon fill="white" stroke="transparent" points="-4,4 -4,-94 585.1,-94 585.1,4 -4,4"/>
<!-- develop -->
<g id="node1" class="node">
<title>develop</title>
<ellipse fill="#ffe5e5" stroke="#ff0000" stroke-width="2" cx="220.13" cy="-72" rx="46.59" ry="18"/>
<text text-anchor="middle" x="220.13" y="-68.3" font-family="Times,serif" font-size="14.00">develop</text>
</g>
<!-- feature/dashboard -->
<g id="node2" class="node">
<title>feature/dashboard</title>
<ellipse fill="#ffe5e5" stroke="#ff0000" stroke-width="2" cx="449.16" cy="-72" rx="131.88" ry="18"/>
<text text-anchor="middle" x="449.16" y="-68.3" font-family="Times,serif" font-size="14.00">HEAD→feature/dashboard</text>
</g>
<!-- develop&#45;&gt;feature/dashboard -->
<g id="edge1" class="edge">
<title>develop&#45;&gt;feature/dashboard</title>
<path fill="none" stroke="black" d="M267.07,-72C278.96,-72 292.4,-72 306.46,-72"/>
<polygon fill="black" stroke="black" points="306.79,-75.5 316.79,-72 306.79,-68.5 306.79,-75.5"/>
</g>
<!-- hotfix/auth -->
<g id="node3" class="node">
<title>hotfix/auth</title>
<ellipse fill="#ffe5e5" stroke="#ff0000" stroke-width="2" cx="220.13" cy="-18" rx="61.19" ry="18"/>
<text text-anchor="middle" x="220.13" y="-14.3" font-family="Times,serif" font-size="14.00">hotfix/auth</text>
</g>
<!-- main -->
<g id="node4" class="node">
<title>main</title>
<ellipse fill="#ffe5e5" stroke="#ff0000" stroke-width="2" cx="449.16" cy="-18" rx="33.6" ry="18"/>
<text text-anchor="middle" x="449.16" y="-14.3" font-family="Times,serif" font-size="14.00">main</text>
</g>
<!-- hotfix/auth&#45;&gt;main -->
<g id="edge4" class="edge">
<title>hotfix/auth&#45;&gt;main</title>
<path fill="none" stroke="black" d="M281.38,-18C320.19,-18 369.74,-18 404.72,-18"/>
<polygon fill="black" stroke="black" points="405.08,-21.5 415.08,-18 405.08,-14.5 405.08,-21.5"/>
</g>
<!-- 88404aa09addab5382e7e5b655317aae36f40d42 -->
<g id="node5" class="node">
<title>88404aa09addab5382e7e5b655317aae36f40d42</title>
<ellipse fill="#f6ffe5" stroke="#aaff00" stroke-width="2" cx="61.52" cy="-45" rx="61.54" ry="26.74"/>
<text text-anchor="middle" x="61.52" y="-48.8" font-family="Times,serif" font-size="14.00">fork</text>
<text text-anchor="middle" x="61.52" y="-33.8" font-family="Times,serif" font-size="14.00">88404aa0</text>
</g>
<!-- 88404aa09addab5382e7e5b655317aae36f40d42&#45;&gt;develop -->
<g id="edge2" class="edge">
<title>88404aa09addab5382e7e5b655317aae36f40d42&#45;&gt;develop</title>
<path fill="none" stroke="black" d="M119.06,-54.75C134.73,-57.45 151.66,-60.37 167.06,-63.02"/>
<polygon fill="black" stroke="black" points="166.48,-66.47 176.93,-64.72 167.67,-59.58 166.48,-66.47"/>
</g>
<!-- 88404aa09addab5382e7e5b655317aae36f40d42&#45;&gt;hotfix/auth -->
<g id="edge3" class="edge">
<title>88404aa09addab5382e7e5b655317aae36f40d42&#45;&gt;hotfix/auth</title>
<path fill="none" stroke="black" d="M119.06,-35.25C131.43,-33.12 144.6,-30.85 157.17,-28.68"/>
<polygon fill="black" stroke="black" points="157.84,-32.12 167.1,-26.97 156.65,-25.22 157.84,-32.12"/>
</g>
</g>
</svg>
