<?xml version="1.0" encoding="UTF-8" standalone="no"?>
<!DOCTYPE svg PUBLIC "-//W3C//DTD SVG 1.1//EN"
 "http://www.w3.org/Graphics/SVG/1.1/DTD/svg11.dtd">
<!-- Generated by graphviz version 2.43.0 (0)
 -->
<!-- Title: %3 Pages: 1 -->
<svg width="1201pt" height="120pt"
 viewBox="0.00 0.00 1200.94 120.00" xmlns="http://www.w3.org/2000/svg" xmlns:xlink="http://www.w3.org/1999/xlink">
<g id="graph0" class="graph" transform="scale(1 1) rotate(0) translate(4 116)">
<title>%3</title>
<polygon fill="white" stroke="transparent" points="-4,4 -4,-116 1196.94,-116 1196.94,4 -4,4"/>
<!-- HEAD -->
<g id="node1" class="node">
<title>HEAD</title>
<ellipse fill="#ffe5e5" stroke="#ff0000" stroke-width="2" cx="1153.94" cy="-83" rx="38.99" ry="18"/>
<text text-anchor="middle" x="1153.94" y="-79.3" font-family="Times,serif" font-size="14.00">HEAD</text>
</g>
<!-- refs/heads/main -->
<g id="node2" class="node">
<title>refs/heads/main</title>
<ellipse fill="#ffe5e5" stroke="#ff0000" stroke-width="2" cx="1001.15" cy="-83" rx="33.6" ry="18"/>
<text text-anchor="middle" x="1001.15" y="-79.3" font-family="Times,serif" font-size="14.00">main</text>
</g>
<!-- HEAD&#45;&gt;refs/heads/main -->
<g id="edge1" class="edge">
<title>HEAD&#45;&gt;refs/heads/main</title>
<path fill="none" stroke="black" d="M1114.89,-83C1093.65,-83 1067.12,-83 1045.13,-83"/>
<polygon fill="black" stroke="black" points="1045.07,-79.5 1035.07,-83 1045.07,-86.5 1045.07,-79.5"/>
<text text-anchor="middle" x="1074.95" y="-86.8" font-family="Times,serif" font-size="14.00">HEAD</text>
</g>
<!-- 440a9bd0484861b9cada86255c9945e50c1e0ba2 -->
<g id="node8" class="node">
<title>440a9bd0484861b9cada86255c9945e50c1e0ba2</title>
<ellipse fill="#f6ffe5" stroke="#aaff00" stroke-width="2" cx="811.16" cy="-83" rx="39.79" ry="18"/>
<text text-anchor="middle" x="811.16" y="-79.3" font-family="Times,serif" font-size="14.00">440a9</text>
</g>
<!-- refs/heads/main&#45;&gt;440a9bd0484861b9cada86255c9945e50c1e0ba2 -->
<g id="edge6" class="edge">
<title>refs/heads/main&#45;&gt;440a9bd0484861b9cada86255c9945e50c1e0ba2</title>
<path fill="none" stroke="black" d="M966.97,-83C937.55,-83 894.2,-83 860.85,-83"/>
<polygon fill="black" stroke="black" points="860.84,-79.5 850.84,-83 860.84,-86.5 860.84,-79.5"/>
<text text-anchor="middle" x="924.35" y="-86.8" font-family="Times,serif" font-size="14.00">branch</text>
</g>
<!-- refs/heads/feature/login -->
<g id="node3" class="node">
<title>refs/heads/feature/login</title>
<ellipse fill="#ffe5e5" stroke="#ff0000" stroke-width="2" cx="811.16" cy="-18" rx="70.39" ry="18"/>
<text text-anchor="middle" x="811.16" y="-14.3" font-family="Times,serif" font-size="14.00">feature/login</text>
</g>
<!-- 7fc22d2f5112e249334398d811e67a8f67fb303f -->
<g id="node4" class="node">
<title>7fc22d2f5112e249334398d811e67a8f67fb303f</title>
<ellipse fill="#f6ffe5" stroke="#aaff00" stroke-width="2" cx="615.97" cy="-40" rx="36.29" ry="18"/>
<text text-anchor="middle" x="615.97" y="-36.3" font-family="Times,serif" font-size="14.00">7fc22</text>
</g>
<!-- refs/heads/feature/login&#45;&gt;7fc22d2f5112e249334398d811e67a8f67fb303f -->
<g id="edge2" class="edge">
<title>refs/heads/feature/login&#45;&gt;7fc22d2f5112e249334398d811e67a8f67fb303f</title>
<path fill="none" stroke="black" d="M742.72,-13.81C720.36,-13.66 695.45,-14.84 672.96,-19 666.24,-20.24 659.27,-22.24 652.63,-24.51"/>
<polygon fill="black" stroke="black" points="651.37,-21.25 643.2,-27.99 653.79,-27.82 651.37,-21.25"/>
<text text-anchor="middle" x="697.96" y="-22.8" font-family="Times,serif" font-size="14.00">branch</text>
</g>
<!-- 7360f6d9c2b0261b2cb797caec0433790dc3023e -->
<g id="node5" class="node">
<title>7360f6d9c2b0261b2cb797caec0433790dc3023e</title>
<ellipse fill="#f6ffe5" stroke="#aaff00" stroke-width="2" cx="455.27" cy="-67" rx="37.89" ry="18"/>
<text text-anchor="middle" x="455.27" y="-63.3" font-family="Times,serif" font-size="14.00">7360f</text>
</g>
<!-- 7fc22d2f5112e249334398d811e67a8f67fb303f&#45;&gt;7360f6d9c2b0261b2cb797caec0433790dc3023e -->
<g id="edge3" class="edge">
<title>7fc22d2f5112e249334398d811e67a8f67fb303f&#45;&gt;7360f6d9c2b0261b2cb797caec0433790dc3023e</title>
<path fill="none" stroke="black" d="M580.13,-43.24C559.85,-45.41 533.85,-48.66 510.97,-53 506.8,-53.79 502.47,-54.72 498.17,-55.71"/>
<polygon fill="black" stroke="black" points="497.13,-52.36 488.23,-58.1 498.77,-59.16 497.13,-52.36"/>
<text text-anchor="middle" x="534.97" y="-56.8" font-family="Times,serif" font-size="14.00">parent</text>
</g>
<!-- aba4874b57aabf85a95bac3e1152038e22ae28f3 -->
<g id="node6" class="node">
<title>aba4874b57aabf85a95bac3e1152038e22ae28f3</title>
<ellipse fill="#e5ffe5" stroke="#00ff00" stroke-width="2" cx="249.09" cy="-67" rx="84.49" ry="18"/>
<text text-anchor="middle" x="249.09" y="-63.3" font-family="Times,serif" font-size="14.00">272f9 (2) aba48</text>
</g>
<!-- 7360f6d9c2b0261b2cb797caec0433790dc3023e&#45;&gt;aba4874b57aabf85a95bac3e1152038e22ae28f3 -->
<g id="edge4" class="edge">
<title>7360f6d9c2b0261b2cb797caec0433790dc3023e&#45;&gt;aba4874b57aabf85a95bac3e1152038e22ae28f3</title>
<path fill="none" stroke="black" d="M417.3,-67C396.7,-67 370.04,-67 344.08,-67"/>
<polygon fill="black" stroke="black" points="343.79,-63.5 333.79,-67 343.79,-70.5 343.79,-63.5"/>
<text text-anchor="middle" x="375.58" y="-70.8" font-family="Times,serif" font-size="14.00">parent</text>
</g>
<!-- 9461284c8ee2d46e92c5e7bcc9a387d986c9a98e -->
<g id="node7" class="node">
<title>9461284c8ee2d46e92c5e7bcc9a387d986c9a98e</title>
<ellipse fill="#f6ffe5" stroke="#aaff00" stroke-width="2" cx="40.3" cy="-67" rx="40.09" ry="18"/>
<text text-anchor="middle" x="40.3" y="-63.3" font-family="Times,serif" font-size="14.00">94612</text>
</g>
<!-- aba4874b57aabf85a95bac3e1152038e22ae28f3&#45;&gt;9461284c8ee2d46e92c5e7bcc9a387d986c9a98e -->
<g id="edge5" class="edge">
<title>aba4874b57aabf85a95bac3e1152038e22ae28f3&#45;&gt;9461284c8ee2d46e92c5e7bcc9a387d986c9a98e</title>
<path fill="none" stroke="black" d="M164.57,-67C139.61,-67 113.03,-67 90.98,-67"/>
<polygon fill="black" stroke="black" points="90.86,-63.5 80.86,-67 90.86,-70.5 90.86,-63.5"/>
<text text-anchor="middle" x="122.59" y="-70.8" font-family="Times,serif" font-size="14.00">parent</text>
</g>
<!-- 440a9bd0484861b9cada86255c9945e50c1e0ba2&#45;&gt;7fc22d2f5112e249334398d811e67a8f67fb303f -->
<g id="edge8" class="edge">
<title>440a9bd0484861b9cada86255c9945e50c1e0ba2&#45;&gt;7fc22d2f5112e249334398d811e67a8f67fb303f</title>
<path fill="none" stroke="black" d="M775.17,-75.21C742.61,-67.97 694.02,-57.15 659.29,-49.42"/>
<polygon fill="black" stroke="black" points="659.96,-45.98 649.44,-47.23 658.44,-52.82 659.96,-45.98"/>
<text text-anchor="middle" x="697.96" y="-66.8" font-family="Times,serif" font-size="14.00">parent</text>
</g>
<!-- 61a2e7bf0d68ed8dcf02b4892dc6af87929e33c8 -->
<g id="node9" class="node">
<title>61a2e7bf0d68ed8dcf02b4892dc6af87929e33c8</title>
<ellipse fill="#f6ffe5" stroke="#aaff00" stroke-width="2" cx="615.97" cy="-94" rx="38.99" ry="18"/>
<text text-anchor="middle" x="615.97" y="-90.3" font-family="Times,serif" font-size="14.00">61a2e</text>
</g>
<!-- 440a9bd0484861b9cada86255c9945e50c1e0ba2&#45;&gt;61a2e7bf0d68ed8dcf02b4892dc6af87929e33c8 -->
<g id="edge7" class="edge">
<title>440a9bd0484861b9cada86255c9945e50c1e0ba2&#45;&gt;61a2e7bf0d68ed8dcf02b4892dc6af87929e33c8</title>
<path fill="none" stroke="black" d="M771.53,-85.2C740.92,-86.94 698,-89.39 665.16,-91.26"/>
<polygon fill="black" stroke="black" points="664.66,-87.78 654.87,-91.84 665.06,-94.77 664.66,-87.78"/>
<text text-anchor="middle" x="697.96" y="-93.8" font-family="Times,serif" font-size="14.00">parent</text>
</g>
<!-- 61a2e7bf0d68ed8dcf02b4892dc6af87929e33c8&#45;&gt;7360f6d9c2b0261b2cb797caec0433790dc3023e -->
<g id="edge9" class="edge">
<title>61a2e7bf0d68ed8dcf02b4892dc6af87929e33c8&#45;&gt;7360f6d9c2b0261b2cb797caec0433790dc3023e</title>
<path fill="none" stroke="black" d="M578.96,-87.87C555.91,-83.95 525.83,-78.83 501.23,-74.65"/>
<polygon fill="black" stroke="black" points="501.5,-71.14 491.05,-72.92 500.32,-78.04 501.5,-71.14"/>
<text text-anchor="middle" x="534.97" y="-86.8" font-family="Times,serif" font-size="14.00">parent</text>
</g>
</g>
</svg>
