<?xml version="1.0" encoding="UTF-8" standalone="no"?>
<!DOCTYPE svg PUBLIC "-//W3C//DTD SVG 1.1//EN"
 "http://www.w3.org/Graphics/SVG/1.1/DTD/svg11.dtd">
<!-- Generated by graphviz version 2.43.0 (0)
 -->
<!-- Title: %3 Pages: 1 -->
<svg width="1178pt" height="247pt"
 viewBox="0.00 0.00 1177.52 246.74" xmlns="http://www.w3.org/2000/svg" xmlns:xlink="http://www.w3.org/1999/xlink">
<g id="graph0" class="graph" transform="scale(1 1) rotate(0) translate(4 242.74)">
<title>%3</title>
<polygon fill="white" stroke="transparent" points="-4,4 -4,-242.74 1173.52,-242.74 1173.52,4 -4,4"/>
<!-- HEAD -->
<g id="node1" class="node">
<title>HEAD</title>
<ellipse fill="#ffe5e5" stroke="#ff0000" stroke-width="2" cx="1083.08" cy="-94.87" rx="38.99" ry="18"/>
<text text-anchor="middle" x="1083.08" y="-91.17" font-family="Times,serif" font-size="14.00">HEAD</text>
</g>
<!-- refs/heads/main -->
<g id="node2" class="node">
<title>refs/heads/main</title>
<ellipse fill="#ffe5e5" stroke="#ff0000" stroke-width="2" cx="827.39" cy="-94.87" rx="33.6" ry="18"/>
<text text-anchor="middle" x="827.39" y="-91.17" font-family="Times,serif" font-size="14.00">main</text>
</g>
<!-- HEAD&#45;&gt;refs/heads/main -->
<g id="edge1" class="edge">
<title>HEAD&#45;&gt;refs/heads/main</title>
<path fill="none" stroke="black" d="M1043.82,-94.87C997.53,-94.87 919.79,-94.87 871.44,-94.87"/>
<polygon fill="black" stroke="black" points="871.29,-91.37 861.29,-94.87 871.29,-98.37 871.29,-91.37"/>
<text text-anchor="middle" x="933.14" y="-98.67" font-family="Times,serif" font-size="14.00">HEAD</text>
</g>
<!-- 7cd71ccaaa890e93e4d37141aaecc4ebabfdbfa7 -->
<g id="node3" class="node">
<title>7cd71ccaaa890e93e4d37141aaecc4ebabfdbfa7</title>
<ellipse fill="#f6ffe5" stroke="#aaff00" stroke-width="2" cx="660.15" cy="-94.87" rx="38.99" ry="18"/>
<text text-anchor="middle" x="660.15" y="-91.17" font-family="Times,serif" font-size="14.00">7cd71</text>
</g>
<!-- refs/heads/main&#45;&gt;7cd71ccaaa890e93e4d37141aaecc4ebabfdbfa7 -->
<g id="edge2" class="edge">
<title>refs/heads/main&#45;&gt;7cd71ccaaa890e93e4d37141aaecc4ebabfdbfa7</title>
<path fill="none" stroke="black" d="M793.35,-94.87C769.3,-94.87 736.35,-94.87 709.36,-94.87"/>
<polygon fill="black" stroke="black" points="709.34,-91.37 699.34,-94.87 709.34,-98.37 709.34,-91.37"/>
<text text-anchor="middle" x="742.14" y="-98.67" font-family="Times,serif" font-size="14.00">branch</text>
</g>
<!-- 371668786a59618bbcd0decbd50854b4820d5d12 -->
<g id="node4" class="node">
<title>371668786a59618bbcd0decbd50854b4820d5d12</title>
<ellipse fill="#e5fff6" stroke="#00ffa9" stroke-width="2" cx="514.85" cy="-94.87" rx="40.09" ry="18"/>
<text text-anchor="middle" x="514.85" y="-91.17" font-family="Times,serif" font-size="14.00">37166</text>
</g>
<!-- 7cd71ccaaa890e93e4d37141aaecc4ebabfdbfa7&#45;&gt;371668786a59618bbcd0decbd50854b4820d5d12 -->
<g id="edge3" class="edge">
<title>7cd71ccaaa890e93e4d37141aaecc4ebabfdbfa7&#45;&gt;371668786a59618bbcd0decbd50854b4820d5d12</title>
<path fill="none" stroke="black" d="M621.12,-94.87C604.06,-94.87 583.71,-94.87 565.47,-94.87"/>
<polygon fill="black" stroke="black" points="565.31,-91.37 555.31,-94.87 565.31,-98.37 565.31,-91.37"/>
<text text-anchor="middle" x="588.15" y="-98.67" font-family="Times,serif" font-size="14.00">tree</text>
</g>
<!-- 6318399a1dec80b1381675c8aa5be462a6f5d3cd -->
<g id="node5" class="node">
<title>6318399a1dec80b1381675c8aa5be462a6f5d3cd</title>
<ellipse fill="#e5f6ff" stroke="#00a9ff" stroke-width="2" cx="266.78" cy="-125.87" rx="77.56" ry="26.74"/>
<text text-anchor="middle" x="266.78" y="-129.67" font-family="Times,serif" font-size="14.00">README.md</text>
<text text-anchor="middle" x="266.78" y="-114.67" font-family="Times,serif" font-size="14.00">63183</text>
</g>
<!-- 371668786a59618bbcd0decbd50854b4820d5d12&#45;&gt;6318399a1dec80b1381675c8aa5be462a6f5d3cd -->
<g id="edge4" class="edge">
<title>371668786a59618bbcd0decbd50854b4820d5d12&#45;&gt;6318399a1dec80b1381675c8aa5be462a6f5d3cd</title>
<path fill="none" stroke="black" d="M475.94,-99.65C442.62,-103.84 392.95,-110.1 350.49,-115.45"/>
<polygon fill="black" stroke="black" points="349.91,-112 340.43,-116.72 350.79,-118.94 349.91,-112"/>
<text text-anchor="middle" x="409.56" y="-117.67" font-family="Times,serif" font-size="14.00">README.md</text>
</g>
<!-- 7d8335e65f9542c515a447b8da98f1b86c765864 -->
<g id="node6" class="node">
<title>7d8335e65f9542c515a447b8da98f1b86c765864</title>
<ellipse fill="#e5fff6" stroke="#00ffa9" stroke-width="2" cx="266.78" cy="-62.87" rx="40.09" ry="18"/>
<text text-anchor="middle" x="266.78" y="-59.17" font-family="Times,serif" font-size="14.00">7d833</text>
</g>
<!-- 371668786a59618bbcd0decbd50854b4820d5d12&#45;&gt;7d8335e65f9542c515a447b8da98f1b86c765864 -->
<g id="edge5" class="edge">
<title>371668786a59618bbcd0decbd50854b4820d5d12&#45;&gt;7d8335e65f9542c515a447b8da98f1b86c765864</title>
<path fill="none" stroke="black" d="M477.86,-87.51C470.82,-86.2 463.47,-84.92 456.56,-83.87 409.32,-76.72 355.09,-70.94 316.9,-67.26"/>
<polygon fill="black" stroke="black" points="316.87,-63.74 306.58,-66.28 316.2,-70.71 316.87,-63.74"/>
<text text-anchor="middle" x="409.56" y="-87.67" font-family="Times,serif" font-size="14.00">tree</text>
</g>
<!-- 2bb6a021b836c95ebaa7c1da96cfdbbbf0c9eb5e -->
<g id="node7" class="node">
<title>2bb6a021b836c95ebaa7c1da96cfdbbbf0c9eb5e</title>
<ellipse fill="#e5f6ff" stroke="#00a9ff" stroke-width="2" cx="49.5" cy="-98.87" rx="45.92" ry="26.74"/>
<text text-anchor="middle" x="49.5" y="-102.67" font-family="Times,serif" font-size="14.00">app.py</text>
<text text-anchor="middle" x="49.5" y="-87.67" font-family="Times,serif" font-size="14.00">2bb6a</text>
</g>
<!-- 7d8335e65f9542c515a447b8da98f1b86c765864&#45;&gt;2bb6a021b836c95ebaa7c1da96cfdbbbf0c9eb5e -->
<g id="edge6" class="edge">
<title>7d8335e65f9542c515a447b8da98f1b86c765864&#45;&gt;2bb6a021b836c95ebaa7c1da96cfdbbbf0c9eb5e</title>
<path fill="none" stroke="black" d="M228.77,-69.06C194.45,-74.8 142.97,-83.41 104.15,-89.9"/>
<polygon fill="black" stroke="black" points="103.35,-86.48 94.06,-91.58 104.5,-93.39 103.35,-86.48"/>
<text text-anchor="middle" x="143.99" y="-91.67" font-family="Times,serif" font-size="14.00">app.py</text>
</g>
<!-- 166d6ff5b0ee62a792a3508d8fb68699884d3ac5 -->
<g id="node8" class="node">
<title>166d6ff5b0ee62a792a3508d8fb68699884d3ac5</title>
<ellipse fill="#e5f6ff" stroke="#00a9ff" stroke-width="2" cx="49.5" cy="-26.87" rx="49.49" ry="26.74"/>
<text text-anchor="middle" x="49.5" y="-30.67" font-family="Times,serif" font-size="14.00">utils.py</text>
<text text-anchor="middle" x="49.5" y="-15.67" font-family="Times,serif" font-size="14.00">166d6</text>
</g>
<!-- 7d8335e65f9542c515a447b8da98f1b86c765864&#45;&gt;166d6ff5b0ee62a792a3508d8fb68699884d3ac5 -->
<g id="edge7" class="edge">
<title>7d8335e65f9542c515a447b8da98f1b86c765864&#45;&gt;166d6ff5b0ee62a792a3508d8fb68699884d3ac5</title>
<path fill="none" stroke="black" d="M228.77,-56.68C195.33,-51.09 145.61,-42.78 107.17,-36.35"/>
<polygon fill="black" stroke="black" points="107.59,-32.87 97.15,-34.67 106.44,-39.77 107.59,-32.87"/>
<text text-anchor="middle" x="143.99" y="-50.67" font-family="Times,serif" font-size="14.00">utils.py</text>
</g>
<!-- Staged Changes -->
<g id="node9" class="node">
<title>Staged Changes</title>
<ellipse fill="#e5e5ff" stroke="#0000ff" stroke-width="2" cx="1083.08" cy="-148.87" rx="86.38" ry="18"/>
<text text-anchor="middle" x="1083.08" y="-145.17" font-family="Times,serif" font-size="14.00">Staged Changes</text>
</g>
<!-- staged -->
<g id="node11" class="node">
<title>staged</title>
<ellipse fill="none" stroke="black" cx="827.39" cy="-148.87" rx="42.49" ry="18"/>
<text text-anchor="middle" x="827.39" y="-145.17" font-family="Times,serif" font-size="14.00">staged</text>
</g>
<!-- Staged Changes&#45;&gt;staged -->
<g id="edge8" class="edge">
<title>Staged Changes&#45;&gt;staged:src/config.py</title>
<path fill="none" stroke="black" d="M996.55,-148.87C957.83,-148.87 913.35,-148.87 879.86,-148.87"/>
<polygon fill="black" stroke="black" points="879.84,-145.37 869.84,-148.87 879.84,-152.37 879.84,-145.37"/>
<text text-anchor="middle" x="933.14" y="-152.67" font-family="Times,serif" font-size="14.00">src/config.py</text>
</g>
<!-- staged:src/config.py -->
<g id="node10" class="node">
<title>staged:src/config.py</title>
<ellipse fill="#e5e5ff" stroke="#0000ff" stroke-width="2" cx="1083.08" cy="-211.87" rx="75.82" ry="26.74"/>
<text text-anchor="middle" x="1083.08" y="-215.67" font-family="Times,serif" font-size="14.00">src/config.py</text>
<text text-anchor="middle" x="1083.08" y="-200.67" font-family="Times,serif" font-size="14.00">00000</text>
</g>
</g>
</svg>
